# xmcd
#
# Track frame offsets:
#	150
#	12836
#	26422
#	37255
#	47405
#	63819
#	77173
#	94147
#	108685
#	124900
#	140966
#	158151
#	175619
#	192018
#	204205
#	214111
#	226953
#	240116
#	254159
#	264751
#	276967
#	286618
#	297649
#	312165
#
# Disc length: 4329 seconds
#
# Revision: 0
# Processed by: cddbd v1.5.1PL0 Copyright (c) Steve Scherf et al.
# Submitted via: dBpowerAMP V4.0
#
DISCID=5310e718
DTITLE=Suzanne Prentice - Heartache
DYEAR=2003
DGENRE=Country
TTITLE0=01 - Crazy arms
TTITLE1=02 - Talking in your sleep
TTITLE2=03 - Walk right in
TTITLE3=04 - Blue eyes crying in the rain
TTITLE4=05 - The other side of me
TTITLE5=06 - Even cowgirls get the blues
TTITLE6=07 - The Rose
TTITLE7=08 - I'll get over you
TTITLE8=09 - When i dream
TTITLE9=10 - Please mr please
TTITLE10=11 - Let's keep it that way
TTITLE11=12 - Dreamin my dreams
TTITLE12=13 - Its a heartache
TTITLE13=14 - He thinks i still care
TTITLE14=15 - Satin sheets
TTITLE15=16 - Don't believe my heart can stand another you
TTITLE16=17 - Love is a rose
TTITLE17=18 - For the good times
TTITLE18=19 - Sleeping single in a double bed
TTITLE19=20 - Don't it make my brown eye blue
TTITLE20=21 - When will i be loved?
TTITLE21=22 - I don't wanna' play house
TTITLE22=23 - I'm no Lisa
TTITLE23=24 - Paper roses
EXTD=
EXTT0=
EXTT1=
EXTT2=
EXTT3=
EXTT4=
EXTT5=
EXTT6=
EXTT7=
EXTT8=
EXTT9=
EXTT10=
EXTT11=
EXTT12=
EXTT13=
EXTT14=
EXTT15=
EXTT16=
EXTT17=
EXTT18=
EXTT19=
EXTT20=
EXTT21=
EXTT22=
EXTT23=
PLAYORDER=
